<?xml version="1.0" encoding="UTF-8"?>
<svg version="1.1" viewBox="0 0 2048 1433" width="580" height="406" xmlns="http://www.w3.org/2000/svg">
<path transform="translate(924,419)" d="m0 0 26 5 32 8 32 11 26 11 24 12 22 13 17 11 17 12 6 5 1 66v41l101 1 9 1 11 15 9 15 10 18 11 23 10 27 6 21 5 24 3 25 1 34-2 1-174 1v200l-1 2h-203l-1-202-201-1-1-1v-202l1-1h201l1-195z" fill="#053494"/>
<path transform="translate(977,231)" d="m0 0h9l1 2-5 2-22 4-39 9-23 7-30 12-22 10-23 13-14 8-15 10-14 10-13 10-13 11-10 9-17 16-2 3h-2l-2 4-10 10-7 8-12 15-13 18-12 18-9 15-14 26-11 24-10 26-9 29-6 25-7 41-2 24v54l2 26 6 37 8 34 11 33 9 22 9 20 11 21 12 20 13 19 11 15 13 16 10 11 7 8 24 24 8 7 13 11 12 9 17 12 19 12 21 12 24 12 29 12 22 8 30 8 28 6 39 5 15 1h49l33-3 29-5 27-6 27-8 32-12 26-12 25-13 24-15 20-14 14-11 14-12 12-11 24-24 9-11 12-14 13-18 14-21 10-17 12-22 11-25 11-30 10-33 3-3-1 12-5 27-7 27-9 30-11 29-12 26-14 27-14 23-14 20-12 16-9 11-12 14-12 13-21 21-8 7-14 12-13 10-18 13-15 10-20 12-24 13-21 10-35 14-29 9-38 9-24 4-21 2-27 1h-47l-27-1-29-3-28-5-31-8-36-12-24-10-25-12-21-11-21-13-12-8-14-10-12-9-13-11-11-9-8-8-8-7-11-11-7-8-12-13-9-11-14-18-20-30-14-24-14-27-9-21-9-24-9-28-9-36-5-30-4-36-1-20v-27l1-20 4-35 5-29 7-29 11-35 10-26 11-24 8-16 12-22 14-22 10-14 13-17 9-11 12-14 12-13 12-12 8-7 11-10 11-9 15-12 20-14 22-14 25-14 24-12 29-12 36-12 26-7 41-8 21-3z" fill="#053494"/>
<path transform="translate(1530,226)" d="m0 0 5 1-3 5-16 13-11 9-12 11-19 19-9 11-12 15-10 14-7 10-9 15-10 18-12 26-9 25-10 35-5 27-3 27-1 17v39l3 42 3 32 2 42v61l-2 40-4 32-6 33-8 29-9 25-8 18-12 23-8 12-8 11-13 15-14 14-11 9-12 9-19 12-19 10-31 13-27 9-25 7v-2l17-10 23-14 16-12 10-8 12-11 17-17 11-14 9-12 14-24 11-23 9-26 6-26 3-22 2-28v-13l-2-26-4-28-6-25-10-29-8-19-10-19-13-22-14-20-10-13-12-14v-2h-2l-7-8-33-33-8-7-11-10-11-9-14-11-16-12-21-14-21-13-31-16-19-8-24-9-32-10-40-9-34-4-12-1-27-1h-31l-24 1h-13v-2l10-3 28-7 35-7 50-6h65l38 4 24 4 32 7 27 8 40 13 35 15 24 11 20 10 36 20 30 18 12 7 4-17 9-31 9-25 13-30 15-29 11-18 11-16 11-14 11-12 7-8 11-11 8-7 12-10 21-14 19-11 23-10 26-8z" fill="#A4CC13"/>
<path transform="translate(1210,269)" d="m0 0h11l15 3 12 5 11 6 12 11 8 11 6 12 5 17v19l-5 19-9 16-9 10-11 9-15 8-11 3-6 1h-18l-16-4-17-9-10-8-7-8-8-13-6-17-2-13v-8l3-14 6-16 10-14 6-7 11-8 15-7 12-3z" fill="#A4CC13"/>
<path transform="translate(1161,1052)" d="m0 0 2 2v3l-14 4v-2z" fill="#053494"/>
</svg>
